<svg width="25" height="25" viewBox="0 0 25 25" fill="#007AFF" xmlns="http://www.w3.org/2000/svg">
<path d="M15.0805 0.129087C14.5997 0.329307 14.0352 0.919956 13.6903 1.57067C12.2269 4.36374 13.5021 8.59839 15.8122 8.59839C16.9203 8.59839 17.9551 7.47716 18.3941 5.79531C18.5718 5.08453 18.5718 3.50279 18.3941 2.79201C18.0701 1.55065 17.3488 0.509505 16.5649 0.149109C16.1363 -0.0411 15.5196 -0.051111 15.0805 0.129087Z" fill="#007AFF"/>
<path d="M6.66627 0.289308C5.86139 0.699758 5.12968 1.76092 4.88926 2.89217C4.71156 3.72308 4.81609 5.41494 5.09832 6.11571C5.60006 7.37709 6.46766 8.16796 7.42934 8.26807C7.77429 8.2981 8.00425 8.24805 8.45373 8.02781C11.0252 6.76642 11.0147 1.5607 8.43283 0.279297C7.94154 0.0390328 7.15756 0.0390328 6.66627 0.289308Z" fill="#007AFF"/>
<path d="M21.2381 8.0978C20.1196 8.6484 19.4402 10.3503 19.5656 12.3425C19.6911 14.4047 20.6632 15.9064 21.8862 15.9064C22.7329 15.9064 23.5064 15.1455 23.935 13.8942C24.2799 12.863 24.2904 11.0811 23.9559 10.0499C23.4019 8.35808 22.3148 7.57723 21.2381 8.0978Z" fill="#007AFF"/>
<path d="M1.71152 8.32812C1.03208 8.62845 0.321274 9.69963 0.0808547 10.8008C0.00768364 11.1112 -0.0132224 11.8119 0.00768364 12.4526C0.0704017 13.694 0.300368 14.4248 0.854377 15.1256C1.32476 15.6962 1.66971 15.9165 2.20282 15.9765C4.39795 16.2168 5.6314 12.0422 4.13662 9.45936C3.67669 8.65848 3.17495 8.27806 2.52686 8.22801C2.24463 8.20799 1.88923 8.25804 1.71152 8.32812Z" fill="#007AFF"/>
<path d="M7.80573 12.1022C7.57576 12.2424 3.85449 18.0487 3.85449 18.289C3.85449 18.3891 4.55484 19.6605 5.40154 21.1221C6.85451 23.6148 6.96949 23.765 7.24127 23.765C7.89981 23.765 7.84754 23.5848 6.33186 21.002C5.54788 19.6605 4.87889 18.4892 4.84753 18.3991C4.80572 18.289 5.40154 17.2779 6.57227 15.4559C8.02524 13.1934 8.34929 12.6128 8.32838 12.3625C8.29702 12.0321 8.09841 11.942 7.80573 12.1022Z" fill="#007AFF"/>
<path d="M15.6347 12.0722C15.5929 12.1023 15.5615 12.2224 15.5615 12.3225C15.5615 12.4927 16.9518 14.7352 18.7183 17.4381C19.0424 17.9387 19.2096 18.2891 19.1678 18.3892C19.1365 18.4893 18.4675 19.6506 17.6939 20.982C16.4605 23.0943 16.2932 23.4347 16.3978 23.6149C16.4814 23.7651 16.5964 23.8151 16.795 23.7951C17.0354 23.7651 17.2549 23.4547 18.6138 21.1222C19.4605 19.6606 20.1608 18.3892 20.1608 18.2891C20.1608 18.0288 16.4291 12.2224 16.1887 12.1023C15.9587 11.9821 15.7288 11.9721 15.6347 12.0722Z" fill="#007AFF"/>
<path d="M13.2934 12.773C12.5303 14.4348 8.87176 23.695 8.89267 23.9152C8.91357 24.1054 8.9972 24.1755 9.1958 24.1955C9.34215 24.2155 9.51985 24.1655 9.57211 24.0954C9.71846 23.9352 13.7115 14.0444 14.0042 13.1434C14.2446 12.3825 14.2132 12.2023 13.8369 12.2023C13.607 12.2023 13.5234 12.2924 13.2934 12.773Z" fill="#007AFF"/>
</svg>
