<svg width="24" height="23" viewBox="0 0 24 23" fill="none" xmlns="http://www.w3.org/2000/svg">
<path fill-rule="evenodd" clip-rule="evenodd" d="M11.2936 10.398L10.9413 10.9933C10.668 11.4551 10.5313 11.686 10.3118 11.8136C10.0923 11.9413 9.816 11.946 9.26324 11.9555C8.44723 11.9696 7.93548 12.0196 7.50629 12.1974C6.70991 12.5273 6.07726 13.1599 5.74739 13.9563C5.5 14.5535 5.5 15.3107 5.5 16.825V17.475C5.5 19.6027 5.5 20.6666 5.97892 21.4481C6.24691 21.8854 6.61455 22.2531 7.05187 22.5211C7.83343 23 8.89729 23 11.025 23H12.975C15.1027 23 16.1666 23 16.9481 22.5211C17.3854 22.2531 17.7531 21.8854 18.0211 21.4481C18.5 20.6666 18.5 19.6027 18.5 17.475V16.825C18.5 15.3107 18.5 14.5535 18.2526 13.9563C17.9228 13.1599 17.2901 12.5273 16.4937 12.1974C16.0645 12.0196 15.5528 11.9696 14.7368 11.9555C14.1841 11.946 13.9077 11.9413 13.6882 11.8136C13.4687 11.6859 13.332 11.4551 13.0587 10.9933L12.7064 10.398C12.3923 9.8674 11.6077 9.8674 11.2936 10.398ZM10.0697 19.5555C9.87931 19.7459 9.57069 19.7459 9.3803 19.5555L9.24484 19.4201C8.8319 19.0071 8.48753 18.6628 8.25093 18.3526C8.00113 18.0253 7.82596 17.6794 7.82596 17.2608C7.82596 16.8421 8.00113 16.4962 8.25093 16.1689C8.48753 15.8588 8.8319 15.5144 9.24484 15.1015L9.3803 14.9661C9.57069 14.7757 9.87931 14.7757 10.0697 14.9661C10.2601 15.1564 10.2601 15.4651 10.0697 15.6555L9.95822 15.767C9.51511 16.2101 9.21819 16.5084 9.02605 16.7603C8.84249 17.0009 8.80096 17.141 8.80096 17.2608C8.80096 17.3806 8.84249 17.5206 9.02605 17.7612C9.21819 18.0131 9.51511 18.3115 9.95822 18.7545L10.0697 18.8661C10.2601 19.0564 10.2601 19.3651 10.0697 19.5555ZM10.688 20.2738C10.6184 20.5339 10.7727 20.8012 11.0327 20.8709C11.2928 20.9406 11.5601 20.7862 11.6298 20.5262L13.3121 14.2477C13.3818 13.9876 13.2275 13.7203 12.9675 13.6506C12.7074 13.5809 12.44 13.7352 12.3704 13.9953L10.688 20.2738ZM13.9303 19.5555C13.7399 19.3651 13.7399 19.0564 13.9303 18.8661L14.0418 18.7545C14.4849 18.3115 14.7818 18.0131 14.974 17.7612C15.1575 17.5206 15.199 17.3806 15.199 17.2608C15.199 17.141 15.1575 17.0009 14.974 16.7603C14.7818 16.5084 14.4849 16.2101 14.0418 15.767L13.9303 15.6555C13.7399 15.4651 13.7399 15.1564 13.9303 14.9661C14.1207 14.7757 14.4293 14.7757 14.6197 14.9661L14.7312 15.0776L14.7551 15.1015C15.1681 15.5144 15.5125 15.8588 15.7491 16.1689C15.9988 16.4962 16.174 16.8421 16.174 17.2608C16.174 17.6794 15.9988 18.0253 15.7491 18.3526C15.5125 18.6628 15.1681 19.0071 14.7551 19.4201L14.7312 19.444L14.6197 19.5555C14.4293 19.7459 14.1207 19.7459 13.9303 19.5555Z" fill="#3D78D8"/>
<path d="M15.5109 0.129044C15.0485 0.329322 14.5058 0.920144 14.1741 1.57105C12.767 4.36494 13.9932 8.60083 16.2145 8.60083C17.2799 8.60083 18.2749 7.47927 18.6971 5.79693C18.8679 5.08594 18.8679 3.50374 18.6971 2.79275C18.3855 1.55102 17.692 0.509572 16.9381 0.149071C16.526 -0.041194 15.933 -0.0512072 15.5109 0.129044Z" fill="#3D78D8"/>
<path d="M6.78432 0.129043C6.32198 0.329322 5.77922 0.920144 5.44754 1.57105C4.04039 4.36494 5.26662 8.60083 7.4879 8.60083C8.5533 8.60083 9.54836 7.47927 9.9705 5.79693C10.1414 5.08594 10.1414 3.50374 9.9705 2.79275C9.65892 1.55102 8.9654 0.509573 8.21157 0.149071C7.79948 -0.0411936 7.20647 -0.0512075 6.78432 0.129043Z" fill="#3D78D8"/>
<path d="M1.64571 8.3299C0.992389 8.63032 0.308919 9.70181 0.0777453 10.8033C0.00738816 11.1138 -0.0127139 11.8147 0.00738816 12.4556C0.0676943 13.6974 0.288817 14.4284 0.821521 15.1294C1.27382 15.7002 1.6055 15.9205 2.1181 15.9805C4.22882 16.2209 5.41484 12.0451 3.97754 9.46147C3.5353 8.66036 3.05285 8.27983 2.42969 8.22976C2.15831 8.20973 1.81657 8.2598 1.64571 8.3299Z" fill="#3D78D8"/>
<path d="M21.0373 8.32917C20.384 8.62959 19.7005 9.70108 19.4693 10.8026C19.399 11.113 19.3789 11.814 19.399 12.4549C19.4593 13.6966 19.6804 14.4277 20.2131 15.1286C20.6654 15.6994 20.9971 15.9197 21.5097 15.9798C23.6204 16.2201 24.8064 12.0443 23.3691 9.46074C22.9269 8.65963 22.4445 8.2791 21.8213 8.22903C21.5499 8.209 21.2082 8.25907 21.0373 8.32917Z" fill="#3D78D8"/>
</svg>
