<svg xmlns="http://www.w3.org/2000/svg" height="24" viewBox="0 -960 960 960" width="24"><path d="M206.218-115.217q-37.783 0-64.392-26.609-26.609-26.609-26.609-64.392V-600q0-101.993 71.395-173.388Q258.007-844.783 360-844.783h240q101.993 0 173.388 71.395Q844.783-701.993 844.783-600v393.782q0 37.783-26.609 64.392-26.609 26.609-64.392 26.609H206.218Zm0-91.001h547.564V-600q0-63.609-45.086-108.696Q663.609-753.782 600-753.782H360q-63.609 0-108.696 45.086Q206.218-663.609 206.218-600v393.782ZM360-475.217q-35.152 0-59.967-24.816-24.816-24.815-24.816-59.967t24.816-59.967q24.815-24.816 59.967-24.816t59.967 24.816q24.816 24.815 24.816 59.967t-24.816 59.967Q395.152-475.217 360-475.217Zm240 0q-35.152 0-59.967-24.816-24.816-24.815-24.816-59.967t24.816-59.967q24.815-24.816 59.967-24.816t59.967 24.816q24.816 24.815 24.816 59.967t-24.816 59.967Q635.152-475.217 600-475.217ZM278.804-206.218l-3.108-74.26q0-37.783 26.608-64.392 26.609-26.609 64.392-26.609h226.608q37.783 0 64.392 26.609 26.608 26.609 26.608 64.392l-4.782 74.26h-83.826v-76.652h-71.392l-2.152 76.652h-85.261l-1.195-76.652h-71.392v76.652h-85.5Zm-72.586 0h547.564-547.564Z"/></svg>