<svg width="30px" height="30px" viewBox="0 0 18 20" fill="current" xmlns="http://www.w3.org/2000/svg">
<path fill-rule="evenodd" clip-rule="evenodd" d="M8.99843 0.83252C7.43357 0.83252 5.94449 1.49597 4.85467 2.65839C3.76732 3.81822 3.1651 5.3808 3.1651 6.99919C3.1651 9.99624 2.56384 11.8633 2.00648 12.9532C1.727 13.4997 1.45489 13.8582 1.26601 14.0708C1.17136 14.1774 1.09701 14.248 1.05225 14.2878C1.02986 14.3077 1.01483 14.3199 1.00833 14.3251L1.00587 14.327C0.717296 14.5384 0.595507 14.911 0.704575 15.2526C0.814855 15.5981 1.13584 15.8325 1.49843 15.8325H16.4984C16.861 15.8325 17.182 15.5981 17.2923 15.2526C17.4014 14.911 17.2796 14.5384 16.991 14.327L16.9885 14.3251C16.982 14.3199 16.967 14.3077 16.9446 14.2878C16.8999 14.248 16.8255 14.1774 16.7309 14.0708C16.542 13.8582 16.2699 13.4997 15.9904 12.9532C15.433 11.8633 14.8318 9.99624 14.8318 6.99919C14.8318 5.3808 14.2296 3.81824 13.1422 2.6584C12.0526 1.49723 10.5627 0.83252 8.99843 0.83252ZM1.00587 14.327L1.00833 14.3251L1.00587 14.327ZM1.00833 14.3251L1.00511 14.3276L1.00833 14.3251ZM14.5065 13.712C14.5897 13.8748 14.6733 14.0258 14.7563 14.1659H3.24057C3.32352 14.0258 3.40716 13.8748 3.49038 13.712C4.18303 12.3576 4.83177 10.2246 4.83177 6.99919C4.83177 5.78925 5.28289 4.63848 6.07053 3.79832C6.85737 2.95907 7.91163 2.49919 8.99843 2.49919C10.0841 2.49919 11.1392 2.95965 11.9263 3.7983L13.2165 8.52504C13.383 10.9153 13.9295 12.5837 14.5065 13.712ZM13.2165 8.52504C13.1832 8.04605 13.1651 7.5376 13.1651 6.99919C13.1651 5.78937 12.7138 4.63844 11.9263 3.7983L13.2165 8.52504Z" fill="current"/>
<path d="M8.27796 17.0817C8.04737 16.6834 7.53755 16.5474 7.13924 16.778C6.74094 17.0086 6.60498 17.5184 6.83557 17.9167C7.05512 18.2959 7.37051 18.6108 7.75013 18.8296C8.12975 19.0485 8.56024 19.1637 8.99843 19.1637C9.43662 19.1637 9.86712 19.0485 10.2467 18.8296C10.6264 18.6108 10.9417 18.2959 11.1613 17.9167C11.3919 17.5184 11.2559 17.0086 10.8576 16.778C10.4593 16.5474 9.9495 16.6834 9.7189 17.0817C9.64577 17.208 9.54071 17.3129 9.41426 17.3858C9.2878 17.4587 9.1444 17.4971 8.99843 17.4971C8.85246 17.4971 8.70906 17.4587 8.58261 17.3858C8.45615 17.3129 8.35109 17.208 8.27796 17.0817Z" fill="current"/>
</svg>
