<svg xmlns="http://www.w3.org/2000/svg" height="24" viewBox="0 -960 960 960" width="24"><path d="m830.696-65.413-93.892-93.13q-20 13.043-43.782 19.565-23.783 6.522-49.065 6.522-76.435 0-130.131-53.577-53.696-53.576-53.696-130.01 0-76.435 53.696-130.011 53.696-53.576 130.131-53.576 76.434 0 130.01 53.576 53.577 53.576 53.577 130.011 0 25.282-6.642 49.184-6.641 23.902-19.684 44.663l93.369 92.892q13.674 13.674 14.174 31.945.5 18.272-13.174 31.946-13.435 13.435-32.446 13.435-19.011 0-32.445-13.435ZM643.957-223.457q38.891 0 65.739-26.847 26.847-26.848 26.847-65.739 0-38.892-26.847-65.859-26.848-26.967-65.739-26.967-38.892 0-65.859 26.967-26.967 26.967-26.967 65.859 0 38.891 26.967 65.739 26.967 26.847 65.859 26.847ZM66.891-259.435Q52.217-269.63 49.12-287.283q-3.097-17.652 6.098-33.326l151.239-242.239q12.435-19.391 34.805-21.131 22.369-1.739 38.043 15.414l75.674 88.238 117.674-191.934q12.674-21.63 38.163-21.75 25.489-.12 39.163 20.511l75.913 114.348q-25.391 1.717-48.163 8.011-22.772 6.293-44.207 17.163l-20.086-30.131-113.196 183.978q-12.435 19.392-35.185 21.511-22.75 2.12-38.424-15.793l-75.913-88L132.544-271.87q-10.196 16.913-29.848 20.892-19.653 3.978-35.805-8.457Zm670.37-279.478q-22.109-9.435-45.598-14.435-23.489-5-48.598-5.043l184.631-294.696q10.195-16.152 29.467-20.75 19.272-4.598 35.424 7.837 14.674 10.195 18.152 27.848 3.479 17.652-5.717 33.326L737.261-538.913Z"/></svg>