<svg width="30px" height="30px" viewBox="0 0 30 17" fill="current" xmlns="http://www.w3.org/2000/svg">
<path d="M29.4348 13.2577C29.3894 13.1348 29.293 12.9263 29.2136 12.8034C29.1343 12.6751 26.1915 9.86353 22.6704 6.55489C16.9721 1.19371 16.2407 0.525566 15.9742 0.418664C15.2994 0.156752 14.6984 0.156752 14.0237 0.418664C13.7572 0.525566 13.0201 1.19905 7.29905 6.58161C-0.0946342 13.541 0.512057 12.8835 0.512057 13.9365C0.512057 14.5085 0.523397 14.5726 0.676487 14.8719C1.13009 15.7378 2.1677 16.2456 3.14294 16.0799C3.95375 15.941 3.65324 16.1975 9.57273 10.6279L14.9989 5.51793L20.4308 10.6279C26.3446 16.1975 26.0441 15.941 26.8549 16.0799C27.8301 16.2456 28.8734 15.7378 29.3157 14.8719C29.4631 14.594 29.4858 14.4871 29.4971 14.0167C29.5085 13.6746 29.4858 13.402 29.4348 13.2577Z" fill="current"/>
</svg>
