<svg width="30px" height="30px" viewBox="0 0 20 18" fill="current" xmlns="http://www.w3.org/2000/svg">
<path fill-rule="evenodd" clip-rule="evenodd" d="M2.89063 0C1.78606 0 0.890628 0.89543 0.890628 2L0.890628 6.12868C0.273778 6.40334 -0.113122 7.0804 0.0296378 7.7942L1.74925 16.3922C1.93622 17.3271 2.75706 18 3.71042 18H16.0708C17.0241 18 17.845 17.3271 18.0319 16.3922L19.7516 7.7942C19.8943 7.0804 19.5074 6.40337 18.8906 6.1287V4.5C18.8906 3.39543 17.9952 2.5 16.8906 2.5L10.3712 2.5L8.97173 0.75061C8.59223 0.27618 8.01753 0 7.41001 0L2.89063 0ZM17.6708 8L2.11042 8L3.71042 16L16.0708 16L17.6708 8ZM2.89063 6L16.8906 6V4.5H10.3712C9.76373 4.5 9.18903 4.22382 8.80953 3.74939L7.41001 2L2.89063 2L2.89063 6Z" fill="current"/>
</svg>
