<svg width="30px" height="30px" viewBox="0 0 20 20" fill="current" xmlns="http://www.w3.org/2000/svg">
<path fill-rule="evenodd" clip-rule="evenodd" d="M9.99984 2.23145C9.23845 2.23145 8.49162 2.44007 7.84046 2.83466L3.6738 5.35966C3.06108 5.73095 2.55444 6.25397 2.20282 6.87819C1.85121 7.50241 1.66649 8.20675 1.6665 8.92318V14.1665C1.6665 15.2716 2.10549 16.3314 2.88689 17.1128C3.66829 17.8942 4.7281 18.3332 5.83317 18.3332H14.1665C15.2716 18.3332 16.3314 17.8942 17.1128 17.1128C17.8942 16.3314 18.3332 15.2716 18.3332 14.1665V8.92235C18.333 8.20608 18.1482 7.50176 17.7966 6.87774C17.445 6.25372 16.9385 5.73087 16.3259 5.35966L12.1592 2.83466C11.5081 2.44008 10.7612 2.23145 9.99984 2.23145ZM8.70422 4.26003C9.09491 4.02328 9.54301 3.89811 9.99984 3.89811C10.4567 3.89811 10.9048 4.02328 11.2954 4.26003L15.4621 6.78503C15.8297 7.00776 16.1336 7.32147 16.3446 7.69589C16.5555 8.07025 16.6664 8.49266 16.6665 8.92235V14.1665C16.6665 14.8296 16.4031 15.4654 15.9343 15.9343C15.4654 16.4031 14.8295 16.6665 14.1665 16.6665H13.3332V14.1665C13.3332 13.2825 12.982 12.4346 12.3569 11.8095C11.7317 11.1844 10.8839 10.8332 9.99984 10.8332C9.11578 10.8332 8.26793 11.1844 7.64281 11.8095C7.01769 12.4346 6.6665 13.2825 6.6665 14.1665V16.6665H5.83317C5.17013 16.6665 4.53424 16.4031 4.0654 15.9343C3.59656 15.4654 3.33317 14.8296 3.33317 14.1665V8.92318C3.33316 8.49332 3.44399 8.07069 3.65496 7.69616C3.86593 7.32163 4.16991 7.00782 4.53755 6.78504L8.70422 4.26003ZM11.1783 12.988C11.4909 13.3006 11.6665 13.7245 11.6665 14.1665V16.6665H8.33317V14.1665C8.33317 13.7245 8.50876 13.3006 8.82132 12.988C9.13388 12.6754 9.55781 12.4999 9.99984 12.4999C10.4419 12.4999 10.8658 12.6754 11.1783 12.988Z" fill="current"/>
</svg>
