<svg width="30px" height="30px" viewBox="0 0 21 18" fill="current" xmlns="http://www.w3.org/2000/svg">
<path d="M10.8201 1.76535L10.0001 2.58735L9.17606 1.76335C8.16797 0.755393 6.80076 0.189182 5.37521 0.189276C3.94965 0.18937 2.58252 0.75576 1.57456 1.76385C0.566605 2.77194 0.000394525 4.13914 0.000488293 5.5647C0.000582061 6.99026 0.566973 8.35739 1.57506 9.36535L9.47006 17.2603C9.61069 17.4008 9.80131 17.4797 10.0001 17.4797C10.1988 17.4797 10.3894 17.4008 10.5301 17.2603L18.4321 9.36335C19.439 8.35518 20.0044 6.98851 20.0042 5.56364C20.0041 4.13877 19.4382 2.77226 18.4311 1.76435C17.9314 1.26439 17.3382 0.867782 16.6852 0.597188C16.0323 0.326593 15.3324 0.187317 14.6256 0.187317C13.9187 0.187317 13.2189 0.326593 12.5659 0.597188C11.9129 0.867782 11.3197 1.26439 10.8201 1.76435V1.76535ZM17.3681 8.30535L10.0001 15.6703L2.63506 8.30535C2.27209 7.94622 1.98368 7.5189 1.7864 7.04794C1.58911 6.57699 1.48686 6.07168 1.4855 5.56108C1.48414 5.05047 1.58371 4.54463 1.77848 4.07264C1.97325 3.60064 2.25939 3.17179 2.62044 2.81073C2.9815 2.44968 3.41035 2.16354 3.88235 1.96877C4.35435 1.774 4.86019 1.67443 5.37079 1.67579C5.8814 1.67714 6.3867 1.7794 6.85765 1.97668C7.32861 2.17396 7.75593 2.46238 8.11506 2.82535L9.47306 4.18235C9.54371 4.25308 9.6278 4.30898 9.72036 4.34675C9.81293 4.38452 9.91212 4.4034 10.0121 4.40228C10.1121 4.40116 10.2108 4.38007 10.3025 4.34024C10.3942 4.30041 10.477 4.24265 10.5461 4.17035L11.8801 2.82535C12.6154 2.14092 13.5875 1.76836 14.5919 1.78603C15.5963 1.8037 16.5547 2.21024 17.2654 2.92011C17.9762 3.62998 18.384 4.58785 18.4029 5.59222C18.4219 6.59659 18.0505 7.56917 17.3671 8.30535H17.3681Z" fill="current"/>
</svg>
