<svg width="24" height="23" viewBox="0 0 24 23" fill="none" xmlns="http://www.w3.org/2000/svg">
<path d="M15.5109 0.129044C15.0485 0.329322 14.5058 0.920144 14.1741 1.57105C12.767 4.36494 13.9932 8.60083 16.2145 8.60083C17.2799 8.60083 18.2749 7.47927 18.6971 5.79693C18.8679 5.08594 18.8679 3.50374 18.6971 2.79275C18.3855 1.55102 17.692 0.509572 16.9381 0.149071C16.526 -0.041194 15.933 -0.0512072 15.5109 0.129044Z" fill="current"/>
<path d="M6.78432 0.129043C6.32198 0.329322 5.77922 0.920144 5.44754 1.57105C4.04039 4.36494 5.26662 8.60083 7.4879 8.60083C8.5533 8.60083 9.54836 7.47927 9.9705 5.79693C10.1414 5.08594 10.1414 3.50374 9.9705 2.79275C9.65892 1.55102 8.9654 0.509573 8.21157 0.149071C7.79948 -0.0411936 7.20647 -0.0512075 6.78432 0.129043Z" fill="current"/>
<path d="M1.64571 8.3299C0.992389 8.63032 0.308919 9.70181 0.0777453 10.8033C0.00738816 11.1138 -0.0127139 11.8147 0.00738816 12.4556C0.0676943 13.6974 0.288817 14.4284 0.821521 15.1294C1.27382 15.7002 1.6055 15.9205 2.1181 15.9805C4.22882 16.2209 5.41484 12.0451 3.97754 9.46147C3.5353 8.66036 3.05285 8.27983 2.42969 8.22976C2.15831 8.20973 1.81657 8.2598 1.64571 8.3299Z" fill="current"/>
<path d="M21.0373 8.32917C20.384 8.62959 19.7005 9.70108 19.4693 10.8026C19.399 11.113 19.3789 11.814 19.399 12.4549C19.4593 13.6966 19.6804 14.4277 20.2131 15.1286C20.6654 15.6994 20.9971 15.9197 21.5097 15.9798C23.6204 16.2201 24.8064 12.0443 23.3691 9.46074C22.9269 8.65963 22.4445 8.2791 21.8213 8.22903C21.5499 8.209 21.2082 8.25907 21.0373 8.32917Z" fill="current"/>
<path d="M12.6417 19.475C12.5139 19.6028 12.3556 19.6667 12.1667 19.6667C11.9778 19.6667 11.8194 19.6028 11.6917 19.475C11.5639 19.3472 11.5 19.1889 11.5 19C11.5 18.8111 11.5639 18.6528 11.6917 18.525C11.8194 18.3972 11.9778 18.3333 12.1667 18.3333C12.3556 18.3333 12.5139 18.3972 12.6417 18.525C12.7694 18.6528 12.8333 18.8111 12.8333 19C12.8333 19.1889 12.7694 19.3472 12.6417 19.475Z" fill="current"/>
<path d="M12.8333 17H11.5V13H12.8333V17Z" fill="current"/>
<path d="M9.88119 23C8.66466 23 7.63033 22.5739 6.77821 21.7218C5.92607 20.8697 5.5 19.8353 5.5 18.6188V14.3812C5.5 13.1647 5.92607 12.1303 6.77821 11.2782C7.63033 10.4261 8.66466 10 9.88119 10H14.1188C15.3353 10 16.3697 10.4261 17.2218 11.2782C18.0739 12.1303 18.5 13.1647 18.5 14.3812V18.6188C18.5 19.8353 18.0739 20.8697 17.2218 21.7218C16.3697 22.5739 15.3353 23 14.1188 23H9.88119ZM9.88119 21.3932H14.1188C14.8844 21.3932 15.5383 21.1222 16.0802 20.5802C16.6222 20.0383 16.8932 19.3844 16.8932 18.6188V14.3812C16.8932 13.6156 16.6222 12.9617 16.0802 12.4198C15.5383 11.8778 14.8844 11.6068 14.1188 11.6068H9.88119C9.11556 11.6068 8.46174 11.8778 7.91975 12.4198C7.37777 12.9617 7.10678 13.6156 7.10678 14.3812V18.6188C7.10678 19.3844 7.37777 20.0383 7.91975 20.5802C8.46174 21.1222 9.11556 21.3932 9.88119 21.3932Z" fill="current"/>
</svg>
