<?xml version="1.0" standalone="no"?>
<!DOCTYPE svg PUBLIC "-//W3C//DTD SVG 20010904//EN"
 "http://www.w3.org/TR/2001/REC-SVG-20010904/DTD/svg10.dtd">
<svg version="1.0" xmlns="http://www.w3.org/2000/svg"
 width="30px" height="30px" viewBox="0 0 360.000000 360.000000"
 preserveAspectRatio="xMidYMid meet">

<g transform="translate(0.000000,360.000000) scale(0.100000,-0.100000)"
fill="current" stroke="none">
<path d="M2184 3016 c-46 -20 -100 -79 -133 -144 -140 -279 -18 -702 203 -702
106 0 205 112 247 280 17 71 17 229 0 300 -31 124 -100 228 -175 264 -41 19
-100 20 -142 2z"/>
<path d="M1379 3000 c-77 -41 -147 -147 -170 -260 -17 -83 -7 -252 20 -322 48
-126 131 -205 223 -215 33 -3 55 2 98 24 246 126 245 646 -2 774 -47 24 -122
24 -169 -1z"/>
<path d="M2773 2220 c-107 -55 -172 -225 -160 -424 12 -206 105 -356 222 -356
81 0 155 76 196 201 33 103 34 281 2 384 -53 169 -157 247 -260 195z"/>
<path d="M905 2197 c-65 -30 -133 -137 -156 -247 -7 -31 -9 -101 -7 -165 6
-124 28 -197 81 -267 45 -57 78 -79 129 -85 210 -24 328 393 185 651 -44 80
-92 118 -154 123 -27 2 -61 -3 -78 -10z"/>
<path d="M1488 1820 c-22 -14 -378 -594 -378 -618 0 -10 67 -137 148 -283 139
-249 150 -264 176 -264 63 0 58 18 -87 276 -75 134 -139 251 -142 260 -4 11
53 112 165 294 139 226 170 284 168 309 -3 33 -22 42 -50 26z"/>
<path d="M2237 1823 c-4 -3 -7 -15 -7 -25 0 -17 133 -241 302 -511 31 -50 47
-85 43 -95 -3 -10 -67 -126 -141 -259 -118 -211 -134 -245 -124 -263 8 -15 19
-20 38 -18 23 3 44 34 174 267 81 146 148 273 148 283 0 26 -357 606 -380 618
-22 12 -44 13 -53 3z"/>
<path d="M2013 1753 c-73 -166 -423 -1091 -421 -1113 2 -19 10 -26 29 -28 14
-2 31 3 36 10 14 16 396 1004 424 1094 23 76 20 94 -16 94 -22 0 -30 -9 -52
-57z"/>
</g>
</svg>
