<svg width="24" height="23" viewBox="0 0 24 23" fill="current" xmlns="http://www.w3.org/2000/svg">
<path d="M14.9555 0.129043C14.4786 0.329322 13.9188 0.920144 13.5767 1.57105C12.1254 4.36494 13.3901 8.60083 15.6811 8.60083C16.78 8.60083 17.8063 7.47927 18.2417 5.79693C18.4179 5.08594 18.4179 3.50374 18.2417 2.79275C17.9203 1.55102 17.205 0.509573 16.4275 0.149071C16.0025 -0.0411936 15.3909 -0.0512075 14.9555 0.129043Z" fill="current"/>
<path d="M6.61081 0.289283C5.81259 0.699854 5.08693 1.76133 4.84849 2.89291C4.67226 3.72406 4.77593 5.41642 5.05583 6.11739C5.55342 7.37915 6.41385 8.17025 7.36757 8.27039C7.70967 8.30043 7.93773 8.25036 8.3835 8.03005C10.9337 6.7683 10.9233 1.56105 8.36276 0.279269C7.87553 0.0389345 7.09804 0.0389345 6.61081 0.289283Z" fill="current"/>
<path d="M21.062 8.10002C19.9528 8.65079 19.279 10.3532 19.4034 12.3459C19.5278 14.4088 20.4919 15.9109 21.7048 15.9109C22.5445 15.9109 23.3116 15.1498 23.7366 13.8981C24.0787 12.8667 24.0891 11.0842 23.7573 10.0527C23.2079 8.36038 22.1298 7.5793 21.062 8.10002Z" fill="current"/>
<path d="M1.69737 8.33039C1.02354 8.63081 0.318617 9.7023 0.0801861 10.8038C0.0076201 11.1143 -0.013113 11.8152 0.0076201 12.4561C0.0698195 13.6979 0.297884 14.4289 0.847312 15.1298C1.31381 15.7006 1.6559 15.9209 2.1846 15.981C4.36158 16.2214 5.58484 12.0456 4.10242 9.46196C3.64629 8.66085 3.14869 8.28032 2.50596 8.23025C2.22607 8.21022 1.8736 8.26029 1.69737 8.33039Z" fill="current"/>
<path d="M11.9997 19.3467C12.1886 19.3467 12.3469 19.2828 12.4747 19.155C12.6025 19.0272 12.6663 18.8689 12.6663 18.68C12.6663 18.4911 12.6025 18.3328 12.4747 18.205C12.3469 18.0772 12.1886 18.0133 11.9997 18.0133C11.8108 18.0133 11.6525 18.0772 11.5247 18.205C11.3969 18.3328 11.333 18.4911 11.333 18.68C11.333 18.8689 11.3969 19.0272 11.5247 19.155C11.6525 19.2828 11.8108 19.3467 11.9997 19.3467ZM11.333 16.68H12.6663V12.68H11.333V16.68ZM11.9997 22.68C11.0775 22.68 10.2108 22.505 9.39967 22.155C8.58856 21.805 7.88301 21.33 7.28301 20.73C6.68301 20.13 6.20801 19.4245 5.85801 18.6133C5.50801 17.8022 5.33301 16.9356 5.33301 16.0133C5.33301 15.0911 5.50801 14.2245 5.85801 13.4133C6.20801 12.6022 6.68301 11.8967 7.28301 11.2967C7.88301 10.6967 8.58856 10.2217 9.39967 9.87168C10.2108 9.52168 11.0775 9.34668 11.9997 9.34668C12.9219 9.34668 13.7886 9.52168 14.5997 9.87168C15.4108 10.2217 16.1163 10.6967 16.7163 11.2967C17.3163 11.8967 17.7913 12.6022 18.1413 13.4133C18.4913 14.2245 18.6663 15.0911 18.6663 16.0133C18.6663 16.9356 18.4913 17.8022 18.1413 18.6133C17.7913 19.4245 17.3163 20.13 16.7163 20.73C16.1163 21.33 15.4108 21.805 14.5997 22.155C13.7886 22.505 12.9219 22.68 11.9997 22.68ZM11.9997 21.3467C13.4886 21.3467 14.7497 20.83 15.783 19.7967C16.8163 18.7633 17.333 17.5022 17.333 16.0133C17.333 14.5245 16.8163 13.2633 15.783 12.23C14.7497 11.1967 13.4886 10.68 11.9997 10.68C10.5108 10.68 9.24967 11.1967 8.21634 12.23C7.18301 13.2633 6.66634 14.5245 6.66634 16.0133C6.66634 17.5022 7.18301 18.7633 8.21634 19.7967C9.24967 20.83 10.5108 21.3467 11.9997 21.3467Z" fill="current"/>
</svg>
