<svg width="24" height="23" viewBox="0 0 24 23" fill="none" xmlns="http://www.w3.org/2000/svg">
<path d="M9.94314 23C8.71001 23 7.6612 22.5678 6.79672 21.7033C5.93224 20.8388 5.5 19.79 5.5 18.5569V14.4431C5.5 13.21 5.93224 12.1612 6.79672 11.2967C7.6612 10.4322 8.71001 10 9.94314 10H14.0569C15.29 10 16.3388 10.4322 17.2033 11.2967C18.0678 12.1612 18.5 13.21 18.5 14.4431V18.5569C18.5 19.79 18.0678 20.8388 17.2033 21.7033C16.3388 22.5678 15.29 23 14.0569 23H9.94314ZM11.2853 19.3491L15.5056 15.1288L14.4392 14.0623L11.2853 17.2162L9.77694 15.7078L8.71051 16.7742L11.2853 19.3491ZM9.94314 21.1831H14.0569C14.7852 21.1831 15.405 20.9275 15.9162 20.4162C16.4275 19.905 16.6831 19.2852 16.6831 18.5569V14.4431C16.6831 13.7148 16.4275 13.095 15.9162 12.5838C15.405 12.0725 14.7852 11.8169 14.0569 11.8169H9.94314C9.21479 11.8169 8.595 12.0725 8.08376 12.5838C7.57253 13.095 7.31691 13.7148 7.31691 14.4431V18.5569C7.31691 19.2852 7.57253 19.905 8.08376 20.4162C8.595 20.9275 9.21479 21.1831 9.94314 21.1831Z" fill="current"/>
<path d="M14.9555 0.129043C14.4786 0.329322 13.9188 0.920144 13.5767 1.57105C12.1254 4.36494 13.3901 8.60083 15.6811 8.60083C16.78 8.60083 17.8063 7.47927 18.2417 5.79693C18.4179 5.08594 18.4179 3.50374 18.2417 2.79275C17.9203 1.55102 17.205 0.509573 16.4275 0.149071C16.0025 -0.0411936 15.3909 -0.0512075 14.9555 0.129043Z" fill="current"/>
<path d="M6.61081 0.289283C5.81259 0.699854 5.08693 1.76133 4.84849 2.89291C4.67226 3.72406 4.77593 5.41642 5.05583 6.11739C5.55342 7.37915 6.41385 8.17025 7.36757 8.27039C7.70967 8.30043 7.93773 8.25036 8.3835 8.03005C10.9337 6.7683 10.9233 1.56105 8.36276 0.279269C7.87553 0.0389345 7.09804 0.0389345 6.61081 0.289283Z" fill="current"/>
<path d="M21.062 8.10002C19.9528 8.65079 19.279 10.3532 19.4034 12.3459C19.5278 14.4088 20.4919 15.9109 21.7048 15.9109C22.5445 15.9109 23.3116 15.1498 23.7366 13.8981C24.0787 12.8667 24.0891 11.0842 23.7573 10.0527C23.2079 8.36038 22.1298 7.5793 21.062 8.10002Z" fill="current"/>
<path d="M1.69737 8.33039C1.02354 8.63081 0.318617 9.7023 0.0801861 10.8038C0.0076201 11.1143 -0.013113 11.8152 0.0076201 12.4561C0.0698195 13.6979 0.297884 14.4289 0.847312 15.1298C1.31381 15.7006 1.6559 15.9209 2.1846 15.981C4.36158 16.2214 5.58484 12.0456 4.10242 9.46196C3.64629 8.66085 3.14869 8.28032 2.50596 8.23025C2.22607 8.21022 1.8736 8.26029 1.69737 8.33039Z" fill="current"/>
</svg>
