<svg width="30px" height="30px" viewBox="0 0 20 20" fill="current" xmlns="http://www.w3.org/2000/svg">
<path d="M3.25 15.1854C2.38805 15.1854 1.5614 14.843 0.951903 14.2335C0.34241 13.624 0 12.7973 0 11.9354V3.43536C0 2.57341 0.34241 1.74676 0.951903 1.13727C1.5614 0.527773 2.38805 0.185364 3.25 0.185364H16.75C17.1768 0.185364 17.5994 0.269427 17.9937 0.432755C18.388 0.596083 18.7463 0.835476 19.0481 1.13727C19.3499 1.43906 19.5893 1.79733 19.7526 2.19164C19.9159 2.58595 20 3.00857 20 3.43536V11.9354C20 12.3622 19.9159 12.7848 19.7526 13.1791C19.5893 13.5734 19.3499 13.9317 19.0481 14.2335C18.7463 14.5353 18.388 14.7746 17.9937 14.938C17.5994 15.1013 17.1768 15.1854 16.75 15.1854H11.012L6 18.9354C5.81428 19.0744 5.59356 19.1589 5.36251 19.1796C5.13146 19.2003 4.89922 19.1563 4.69176 19.0525C4.4843 18.9488 4.30981 18.7893 4.18782 18.592C4.06582 18.3947 4.00114 18.1673 4.001 17.9354V15.1854H3.251H3.25ZM10.514 13.6854H16.75C17.2141 13.6854 17.6592 13.501 17.9874 13.1728C18.3156 12.8446 18.5 12.3995 18.5 11.9354V3.43536C18.5 2.97123 18.3156 2.52612 17.9874 2.19793C17.6592 1.86974 17.2141 1.68536 16.75 1.68536H3.25C2.78587 1.68536 2.34075 1.86974 2.01256 2.19793C1.68437 2.52612 1.5 2.97123 1.5 3.43536V11.9354C1.5 12.9014 2.284 13.6854 3.25 13.6854H5.499V17.4354L10.514 13.6854Z" fill="current"/>
</svg>
