<svg width="17" height="16" viewBox="0 0 17 16" fill="current" xmlns="http://www.w3.org/2000/svg">
<g id="Icon / Half-moon">
<path id="Union" fill-rule="evenodd" clip-rule="evenodd" d="M6.68283 1.99998C6.68283 1.76929 6.56357 1.55499 6.36751 1.43341C6.17146 1.31183 5.92649 1.30025 5.71984 1.40279C4.55249 1.98204 3.57013 2.87581 2.88347 3.98339C2.19692 5.0908 1.83328 6.36793 1.8335 7.67088C1.83247 9.2494 2.36536 10.7819 3.34555 12.0192C4.32574 13.2565 5.69559 14.1259 7.23247 14.4862C8.76934 14.8464 10.3829 14.6762 11.8108 14.0033C13.2387 13.3305 14.3971 12.1944 15.0976 10.7798C15.1999 10.5732 15.1882 10.3283 15.0666 10.1324C14.945 9.93648 14.7308 9.81731 14.5002 9.81731C11.7659 9.81731 9.84513 9.13946 8.60283 7.89709C7.36053 6.65471 6.68283 4.7339 6.68283 1.99998ZM4.0167 4.68595C4.38053 4.09908 4.84692 3.58638 5.39075 3.17071C5.56489 5.55816 6.2946 7.47439 7.66 8.83987C9.02564 10.2056 10.9423 10.9355 13.3306 11.1095C12.7831 11.8272 12.0685 12.408 11.2424 12.7972C10.0867 13.3419 8.78067 13.4796 7.53674 13.188C6.2928 12.8965 5.18404 12.1927 4.39068 11.1913C3.59732 10.1898 3.166 8.9494 3.16683 7.67175C3.16656 6.61695 3.46091 5.58244 4.0167 4.68595Z" fill="current"/>
</g>
</svg>
