<svg width="30px" height="30px" viewBox="0 0 14 16" fill="current" xmlns="http://www.w3.org/2000/svg">
<path fill-rule="evenodd" clip-rule="evenodd" d="M7.00016 0.5C5.89509 0.5 4.83529 0.938987 4.05388 1.72039C3.27248 2.50179 2.8335 3.5616 2.8335 4.66667C2.8335 5.77174 3.27248 6.83154 4.05388 7.61294C4.10885 7.66791 4.1652 7.72119 4.22284 7.77273C3.50907 8.09981 2.85197 8.55343 2.28612 9.11929C1.03587 10.3695 0.333496 12.0652 0.333496 13.8333V14.6667C0.333496 15.1269 0.706592 15.5 1.16683 15.5C1.62707 15.5 2.00016 15.1269 2.00016 14.6667V13.8333C2.00016 12.5073 2.52695 11.2355 3.46463 10.2978C4.40231 9.36012 5.67408 8.83333 7.00016 8.83333C8.32624 8.83333 9.59801 9.36012 10.5357 10.2978C11.4734 11.2355 12.0002 12.5073 12.0002 13.8333V14.6667C12.0002 15.1269 12.3733 15.5 12.8335 15.5C13.2937 15.5 13.6668 15.1269 13.6668 14.6667V13.8333C13.6668 12.0652 12.9644 10.3695 11.7142 9.11929C11.1484 8.55343 10.4913 8.09981 9.77749 7.77273C9.83513 7.72119 9.89147 7.66791 9.94644 7.61294C10.7278 6.83154 11.1668 5.77174 11.1668 4.66667C11.1668 3.5616 10.7278 2.50179 9.94644 1.72039C9.16504 0.938987 8.10523 0.5 7.00016 0.5ZM5.2324 2.8989C5.70124 2.43006 6.33712 2.16667 7.00016 2.16667C7.6632 2.16667 8.29909 2.43006 8.76793 2.8989C9.23677 3.36774 9.50016 4.00363 9.50016 4.66667C9.50016 5.32971 9.23677 5.96559 8.76793 6.43443C8.29909 6.90327 7.6632 7.16667 7.00016 7.16667C6.33712 7.16667 5.70124 6.90327 5.2324 6.43443C4.76355 5.96559 4.50016 5.32971 4.50016 4.66667C4.50016 4.00363 4.76355 3.36774 5.2324 2.8989Z" fill="current"/>
</svg>
