<svg width="24" height="23" viewBox="0 0 24 23" fill="current" xmlns="http://www.w3.org/2000/svg">
<path d="M18.4004 20.3939L17.1812 19.1747V13.0023H14.7122L13.5997 11.7831H11.0088L10.4297 12.4232L9.561 11.5545L10.4754 10.5639H14.1331L15.2609 11.7831H17.1812C17.5165 11.7831 17.8035 11.9025 18.0422 12.1413C18.281 12.38 18.4004 12.6671 18.4004 13.0023V20.3939ZM7.42735 21.5369C7.09207 21.5369 6.80504 21.4175 6.56628 21.1788C6.32751 20.94 6.20813 20.653 6.20813 20.3177V13.0023C6.20813 12.6671 6.32751 12.38 6.56628 12.1413C6.80504 11.9025 7.09207 11.7831 7.42735 11.7831H8.05221L9.27143 13.0023H7.42735V20.3177H16.5868L17.806 21.5369H7.42735ZM14.5293 18.2603C14.2753 18.6057 13.9578 18.8826 13.5768 19.0909C13.1958 19.2991 12.7716 19.4033 12.3043 19.4033C11.5422 19.4033 10.8945 19.1366 10.3611 18.6032C9.82771 18.0698 9.561 17.422 9.561 16.66C9.561 16.1927 9.66514 15.7685 9.87343 15.3875C10.0817 15.0064 10.3586 14.6889 10.704 14.4349L11.588 15.3189C11.3441 15.451 11.1485 15.6338 11.0012 15.8675C10.8539 16.1012 10.7802 16.3654 10.7802 16.66C10.7802 17.0868 10.9275 17.4474 11.2222 17.7421C11.5168 18.0367 11.8775 18.1841 12.3043 18.1841C12.5989 18.1841 12.8631 18.1104 13.0968 17.9631C13.3304 17.8157 13.5133 17.6202 13.6454 17.3763L14.5293 18.2603ZM14.255 14.7093C14.509 14.9531 14.7046 15.2427 14.8418 15.578C14.9789 15.9132 15.0475 16.2739 15.0475 16.66V16.8429C15.0475 16.9039 15.0424 16.9648 15.0323 17.0258L11.9385 13.932C11.9995 13.9218 12.0604 13.9168 12.1214 13.9168H12.3043C12.6903 13.9168 13.051 13.9853 13.3863 14.1225C13.7216 14.2597 14.0112 14.4553 14.255 14.7093ZM17.4707 22.939L5.40039 10.8687L6.26909 10L18.3394 22.0703L17.4707 22.939Z" fill="current"/>
<path d="M14.9555 0.129043C14.4786 0.329322 13.9188 0.920144 13.5767 1.57105C12.1254 4.36494 13.3901 8.60083 15.6811 8.60083C16.78 8.60083 17.8063 7.47927 18.2417 5.79693C18.4179 5.08594 18.4179 3.50374 18.2417 2.79275C17.9203 1.55102 17.205 0.509573 16.4275 0.149071C16.0025 -0.0411936 15.3909 -0.0512075 14.9555 0.129043Z" fill="current"/>
<path d="M6.61081 0.289283C5.81259 0.699854 5.08693 1.76133 4.84849 2.89291C4.67226 3.72406 4.77593 5.41642 5.05583 6.11739C5.55342 7.37915 6.41385 8.17025 7.36757 8.27039C7.70967 8.30043 7.93773 8.25036 8.3835 8.03005C10.9337 6.7683 10.9233 1.56105 8.36276 0.279269C7.87553 0.0389345 7.09804 0.0389345 6.61081 0.289283Z" fill="current"/>
<path d="M21.062 8.10002C19.9528 8.65079 19.279 10.3532 19.4034 12.3459C19.5278 14.4088 20.4919 15.9109 21.7048 15.9109C22.5445 15.9109 23.3116 15.1498 23.7366 13.8981C24.0787 12.8667 24.0891 11.0842 23.7573 10.0527C23.2079 8.36038 22.1298 7.5793 21.062 8.10002Z" fill="current"/>
<path d="M1.69737 8.33039C1.02354 8.63081 0.318617 9.7023 0.0801861 10.8038C0.0076201 11.1143 -0.013113 11.8152 0.0076201 12.4561C0.0698195 13.6979 0.297884 14.4289 0.847312 15.1298C1.31381 15.7006 1.6559 15.9209 2.1846 15.981C4.36158 16.2214 5.58484 12.0456 4.10242 9.46196C3.64629 8.66085 3.14869 8.28032 2.50596 8.23025C2.22607 8.21022 1.8736 8.26029 1.69737 8.33039Z" fill="current"/>
</svg>
