<svg width="24" height="23" viewBox="0 0 24 23" fill="none" xmlns="http://www.w3.org/2000/svg">
<path d="M15.5109 0.129044C15.0485 0.329322 14.5058 0.920144 14.1741 1.57105C12.767 4.36494 13.9932 8.60083 16.2145 8.60083C17.2799 8.60083 18.2749 7.47927 18.6971 5.79693C18.8679 5.08594 18.8679 3.50374 18.6971 2.79275C18.3855 1.55102 17.692 0.509572 16.9381 0.149071C16.526 -0.041194 15.933 -0.0512075 15.5109 0.129044Z" fill="current"/>
<path d="M6.78432 0.129044C6.32198 0.329322 5.77922 0.920144 5.44754 1.57105C4.04039 4.36494 5.26662 8.60083 7.4879 8.60083C8.5533 8.60083 9.54836 7.47927 9.9705 5.79693C10.1414 5.08594 10.1414 3.50374 9.9705 2.79275C9.65892 1.55102 8.9654 0.509573 8.21157 0.149071C7.79948 -0.041194 7.20647 -0.0512075 6.78432 0.129044Z" fill="current"/>
<path d="M1.64571 8.3299C0.992389 8.63032 0.308919 9.70181 0.0777453 10.8033C0.00738816 11.1138 -0.0127139 11.8147 0.00738816 12.4556C0.0676943 13.6974 0.288817 14.4284 0.821521 15.1294C1.27382 15.7002 1.6055 15.9205 2.1181 15.9805C4.22882 16.2209 5.41484 12.0451 3.97754 9.46147C3.5353 8.66036 3.05285 8.27983 2.42969 8.22976C2.15831 8.20973 1.81657 8.2598 1.64571 8.3299Z" fill="current"/>
<path d="M21.0373 8.32917C20.384 8.62959 19.7005 9.70108 19.4693 10.8026C19.399 11.113 19.3789 11.814 19.399 12.4549C19.4593 13.6966 19.6804 14.4277 20.2131 15.1286C20.6654 15.6994 20.9971 15.9197 21.5097 15.9798C23.6204 16.2201 24.8064 12.0443 23.3691 9.46074C22.9269 8.65963 22.4445 8.2791 21.8213 8.22903C21.5499 8.209 21.2082 8.25907 21.0373 8.32917Z" fill="current"/>
<path d="M18.5 20.3939L17.2808 19.1747V13.0023H14.8118L13.6993 11.7831H11.1084L10.5293 12.4232L9.66061 11.5545L10.575 10.5639H14.2327L15.3605 11.7831H17.2808C17.6161 11.7831 17.9031 11.9025 18.1419 12.1413C18.3806 12.38 18.5 12.6671 18.5 13.0023V20.3939ZM7.52696 21.5369C7.19168 21.5369 6.90465 21.4175 6.66589 21.1788C6.42712 20.94 6.30774 20.653 6.30774 20.3177V13.0023C6.30774 12.6671 6.42712 12.38 6.66589 12.1413C6.90465 11.9025 7.19168 11.7831 7.52696 11.7831H8.15182L9.37104 13.0023H7.52696V20.3177H16.6864L17.9056 21.5369H7.52696ZM14.629 18.2603C14.375 18.6057 14.0574 18.8826 13.6764 19.0909C13.2954 19.2991 12.8712 19.4033 12.4039 19.4033C11.6419 19.4033 10.9941 19.1366 10.4607 18.6032C9.92732 18.0698 9.66061 17.422 9.66061 16.66C9.66061 16.1927 9.76475 15.7685 9.97304 15.3875C10.1813 15.0064 10.4582 14.6889 10.8036 14.4349L11.6876 15.3189C11.4437 15.451 11.2481 15.6338 11.1008 15.8675C10.9535 16.1012 10.8798 16.3654 10.8798 16.66C10.8798 17.0868 11.0272 17.4474 11.3218 17.7421C11.6165 18.0367 11.9771 18.1841 12.4039 18.1841C12.6985 18.1841 12.9627 18.1104 13.1964 17.9631C13.4301 17.8157 13.6129 17.6202 13.745 17.3763L14.629 18.2603ZM14.3546 14.7093C14.6086 14.9531 14.8042 15.2427 14.9414 15.578C15.0785 15.9132 15.1471 16.2739 15.1471 16.66V16.8429C15.1471 16.9039 15.142 16.9648 15.1319 17.0258L12.0381 13.932C12.0991 13.9218 12.16 13.9168 12.221 13.9168H12.4039C12.79 13.9168 13.1506 13.9853 13.4859 14.1225C13.8212 14.2597 14.1108 14.4553 14.3546 14.7093ZM17.5703 22.939L5.5 10.8687L6.3687 10L18.439 22.0703L17.5703 22.939Z" fill="current"/>
</svg>
