<svg width="50" height="51" viewBox="0 0 50 51" fill="none" xmlns="http://www.w3.org/2000/svg">
<path d="M34.3751 25.5001C34.3751 24.0834 34.2501 22.7084 34.0834 21.3334H41.1251C41.4584 22.6667 41.6667 24.0626 41.6667 25.5001C41.6667 26.2709 41.6042 27.0209 41.5001 27.7501C42.9376 27.9584 44.2709 28.4167 45.5001 29.0834C45.7084 27.9167 45.8334 26.7292 45.8334 25.5001C45.8334 14.0417 36.4584 4.66675 25.0001 4.66675C13.4792 4.66675 4.16675 14.0417 4.16675 25.5001C4.16675 36.9584 13.5417 46.3334 25.0001 46.3334C26.2292 46.3334 27.4167 46.2084 28.5834 46.0001C27.5939 44.1853 27.078 42.1504 27.0834 40.0834C27.0834 39.4792 27.1459 38.8959 27.2292 38.3126C26.5626 39.6251 25.8334 40.8959 25.0001 42.0834C23.2709 39.5834 21.8751 36.8126 21.0209 33.8334H28.7709C30.0222 31.6592 31.9036 29.9157 34.1667 28.8334C34.2917 27.7292 34.3751 26.6251 34.3751 25.5001ZM25.0001 8.89592C26.7292 11.3959 28.1251 14.1876 28.9792 17.1667H21.0209C21.8751 14.1876 23.2709 11.3959 25.0001 8.89592ZM8.87508 29.6667C8.54175 28.3334 8.33341 26.9376 8.33341 25.5001C8.33341 24.0626 8.54175 22.6667 8.87508 21.3334H15.9167C15.7501 22.7084 15.6251 24.0834 15.6251 25.5001C15.6251 26.9167 15.7501 28.2917 15.9167 29.6667H8.87508ZM10.5834 33.8334H16.6667C17.3959 36.4376 18.3334 38.9376 19.5834 41.2501C15.7889 39.941 12.5935 37.3078 10.5834 33.8334ZM16.6667 17.1667H10.5834C12.581 13.6818 15.7809 11.0448 19.5834 9.75008C18.3334 12.0626 17.3959 14.5626 16.6667 17.1667ZM29.8751 29.6667H20.1251C19.9167 28.2917 19.7917 26.9167 19.7917 25.5001C19.7917 24.0834 19.9167 22.6876 20.1251 21.3334H29.8751C30.0626 22.6876 30.2084 24.0834 30.2084 25.5001C30.2084 26.9167 30.0626 28.2917 29.8751 29.6667ZM30.3959 9.75008C34.2292 11.0626 37.4167 13.7084 39.4167 17.1667H33.2709C32.6189 14.5865 31.6534 12.0957 30.3959 9.75008ZM42.5209 40.0834L46.9584 44.5001L44.0001 47.4584L39.5834 43.0209L35.1667 47.4584L32.2292 44.5001L36.6459 40.0834L32.2292 35.6667L35.1667 32.7292L39.5834 37.1459L44.0001 32.7292L46.9584 35.6667L42.5209 40.0834Z" fill="#0A73D3"/>
</svg>
