<svg width="30px" height="30px" viewBox="0 0 20 20" fill="current" xmlns="http://www.w3.org/2000/svg">
<path d="M3.6457 17.5206L4.12998 18.0933L3.6457 17.5206ZM5.96912 15.5559L6.4534 16.1286L5.96912 15.5559ZM6.01317 15.4324L6.16039 14.697L6.01317 15.4324ZM2.01232 10.8835L1.26415 10.9358L2.01232 10.8835ZM2.75 7C2.75 4.65279 4.65279 2.75 7 2.75V1.25C3.82436 1.25 1.25 3.82436 1.25 7H2.75ZM2.75 10.5298V7H1.25V10.5298H2.75ZM2.7605 10.8312C2.75354 10.7318 2.75 10.6312 2.75 10.5298H1.25C1.25 10.6662 1.25476 10.8016 1.26415 10.9358L2.7605 10.8312ZM2.75 16.757V10.8884H1.25V16.757H2.75ZM3.16143 16.9479C2.99893 17.0853 2.75 16.9698 2.75 16.757H1.25C1.25 18.2466 2.99252 19.0551 4.12998 18.0933L3.16143 16.9479ZM5.48485 14.9832L3.16143 16.9479L4.12998 18.0933L6.4534 16.1286L5.48485 14.9832ZM7 14.7798C6.71189 14.7798 6.4312 14.7512 6.16039 14.697L5.86596 16.1678C6.23319 16.2413 6.61248 16.2798 7 16.2798V14.7798ZM13 14.7798H7V16.2798H13V14.7798ZM17.25 10.5298C17.25 12.877 15.3472 14.7798 13 14.7798V16.2798C16.1756 16.2798 18.75 13.7054 18.75 10.5298H17.25ZM17.25 7V10.5298H18.75V7H17.25ZM13 2.75C15.3472 2.75 17.25 4.65279 17.25 7H18.75C18.75 3.82436 16.1756 1.25 13 1.25V2.75ZM7 2.75H13V1.25H7V2.75ZM6.4534 16.1286C6.78857 15.8451 6.82848 15.3428 6.54226 15.0101L5.40501 15.9882C5.14784 15.6891 5.1837 15.2378 5.48485 14.9832L6.4534 16.1286ZM2.57478 10.397C2.11895 9.86702 1.25 10.1895 1.25 10.8884H2.75C2.75 11.5807 1.88913 11.9002 1.43754 11.3751L2.57478 10.397ZM6.54226 15.0101C6.99661 15.5383 6.50596 16.2959 5.86596 16.1678L6.16039 14.697C5.44462 14.5537 4.90027 15.4013 5.40501 15.9882L6.54226 15.0101ZM1.26415 10.9358C1.21418 10.221 2.10501 9.85082 2.57478 10.397L1.43754 11.3751C1.91171 11.9264 2.81094 11.5528 2.7605 10.8312L1.26415 10.9358Z" fill="current"/>
<ellipse cx="6.04004" cy="8.807" rx="1" ry="1.05701" fill="current"/>
<ellipse cx="10.04" cy="8.807" rx="1" ry="1.05701" fill="current"/>
<ellipse cx="14.04" cy="8.807" rx="1" ry="1.05701" fill="current"/>
</svg>
