<svg width="30px" height="30px" viewBox="0 0 20 20" fill="none" xmlns="http://www.w3.org/2000/svg">
<path d="M8.9911 16.4793C6.89924 16.4793 5.12777 15.7538 3.67667 14.3027C2.22556 12.8516 1.5 11.0801 1.5 8.98822C1.5 6.89637 2.22556 5.12488 3.67667 3.67377C5.12777 2.22267 6.89924 1.49712 8.9911 1.49712C11.083 1.49712 12.8544 2.22267 14.3056 3.67377C15.7567 5.12488 16.4822 6.89637 16.4822 8.98822C16.4822 9.86297 16.3354 10.6985 16.0417 11.4947C15.748 12.2909 15.3562 12.9835 14.8662 13.5724L18.2396 16.9458C18.4092 17.1154 18.496 17.3286 18.4999 17.5854C18.5038 17.8421 18.4171 18.0592 18.2396 18.2367C18.0621 18.4141 17.847 18.5029 17.5941 18.5029C17.3413 18.5029 17.1262 18.4141 16.9487 18.2367L13.5753 14.8633C12.9628 15.369 12.2585 15.7648 11.4622 16.0506C10.666 16.3364 9.84229 16.4793 8.9911 16.4793ZM8.9911 14.6419C10.5694 14.6419 11.9063 14.0942 13.0017 12.9988C14.0971 11.9034 14.6448 10.5666 14.6448 8.98822C14.6448 7.40989 14.0971 6.07303 13.0017 4.97762C11.9063 3.88222 10.5694 3.33451 8.9911 3.33451C7.41277 3.33451 6.0759 3.88222 4.9805 4.97762C3.88511 6.07303 3.33742 7.40989 3.33742 8.98822C3.33742 10.5666 3.88511 11.9034 4.9805 12.9988C6.0759 14.0942 7.41277 14.6419 8.9911 14.6419Z" fill="current"/>
</svg>
